# xmcd
#
# Track frame offsets: 
#        150
#        15535
#        34435
#        47185
#        65710
#        81385
#        98935
#        118975
#        138910
#        150985
#        168235
#        191785
#        209035
#        226585
#        256360
#
# Disc length: 3649 seconds
#
# Revision: 6
# Processed by: cddbd v1.5.2PL0 Copyright (c) Steve Scherf et al.
# Submitted via: ExactAudioCopy v0.99pb5
#
DISCID=d50e3f0f
DTITLE=Sara K. - The Chesky Collection
DYEAR=2003
DGENRE=Blues
TTITLE0=Stop Those Bells
TTITLE1=I Couldn't Change Your Mind
TTITLE2=Miles Away
TTITLE3=Vincent
TTITLE4=Whipping Post
TTITLE5=Sizzlin'
TTITLE6=What's A Little More Rain
TTITLE7=Horse I Used To Ride
TTITLE8=He Got You
TTITLE9=If I Don't See You Later
TTITLE10=Tell Me I'm Not Dreamin'
TTITLE11=Tierra Contenta
TTITLE12=Tecolote Eyes
TTITLE13=What Matters
TTITLE14=If I Could Sing Your Blues
EXTD=YEAR: 2003
EXTT0=
EXTT1=
EXTT2=
EXTT3=
EXTT4=
EXTT5=
EXTT6=
EXTT7=
EXTT8=
EXTT9=
EXTT10=
EXTT11=
EXTT12=
EXTT13=
EXTT14=
PLAYORDER=
